<svg width="512" height="512" viewBox="0 0 512 512" fill="none" xmlns="http://www.w3.org/2000/svg">
<rect width="512" height="512" fill="#3A3A3A"/>
<path d="M170.722 122.521C95.4355 122.521 93.7988 306.658 4.60077 306.658C93.654 306.658 95.5577 210.234 170.722 210.234C205.76 210.234 244.001 241.063 279.992 270.474L278.946 268.374C243.807 197.775 206.35 122.521 170.722 122.521Z" fill="url(#paint0_linear_2_9)"/>
<path d="M179.275 174.067C103.988 174.067 93.7988 306.658 4.60077 306.658C93.654 306.658 95.5577 210.234 170.722 210.234C205.76 210.234 244.001 241.063 279.992 270.474C244.55 199.276 215.256 174.067 179.275 174.067Z" fill="url(#paint1_linear_2_9)"/>
<path d="M507.399 285.616C425.566 285.616 401.434 389.479 363.791 389.479C339.501 389.479 310.646 332.056 279.992 270.474C312.816 297.298 343.768 322.942 368.709 322.942C406.292 322.942 425.699 285.616 507.399 285.616Z" fill="url(#paint2_linear_2_9)"/>
<path d="M507.399 285.616C425.566 285.616 401.434 389.479 363.791 389.479C339.501 389.479 310.646 332.056 279.992 270.474C313.397 320.611 345.628 359.476 370.57 359.476C408.152 359.476 425.699 285.616 507.399 285.616Z" fill="url(#paint3_linear_2_9)"/>
<defs>
<linearGradient id="paint0_linear_2_9" x1="-28.1433" y1="247.207" x2="55.0913" y2="323.073" gradientUnits="userSpaceOnUse">
<stop stop-color="white"/>
<stop offset="0.575" stop-color="#FFAC6C"/>
<stop offset="1" stop-color="#FF6E00"/>
</linearGradient>
<linearGradient id="paint1_linear_2_9" x1="203.091" y1="94.4125" x2="172.791" y2="231.16" gradientUnits="userSpaceOnUse">
<stop offset="0.411306" stop-color="#833900"/>
<stop offset="0.57" stop-color="#984200"/>
<stop offset="1" stop-color="#D15B00"/>
</linearGradient>
<linearGradient id="paint2_linear_2_9" x1="393.695" y1="270.474" x2="393.695" y2="389.479" gradientUnits="userSpaceOnUse">
<stop stop-color="#15FF00"/>
<stop offset="1" stop-color="white"/>
</linearGradient>
<linearGradient id="paint3_linear_2_9" x1="401.755" y1="413.288" x2="376.246" y2="348.334" gradientUnits="userSpaceOnUse">
<stop stop-color="#00FF1E"/>
<stop offset="1" stop-color="#006614"/>
</linearGradient>
</defs>
</svg>
